<svg xmlns="http://www.w3.org/2000/svg" width="312" height="512" viewBox="343 233 342 562"><path d="M 355.00 350.00 Q 355.00 245.00 460.00 245.00 L 568.00 245.00 Q 673.00 245.00 673.00 350.00 L 673.00 551.00 Q 673.00 551.00 673.00 551.00 L 445.00 551.00 Q 445.00 551.00 445.00 551.00 L 445.00 783.00 Q 445.00 783.00 445.00 783.00 L 445.00 783.00 Q 355.00 783.00 355.00 693.00 Z M 445.00 345.00 Q 445.00 335.00 455.00 335.00 L 573.00 335.00 Q 583.00 335.00 583.00 345.00 L 583.00 451.00 Q 583.00 461.00 573.00 461.00 L 455.00 461.00 Q 445.00 461.00 445.00 451.00 Z" fill="#000000" fill-rule="evenodd"></path></svg>