<svg xmlns="http://www.w3.org/2000/svg" width="312" height="512" viewBox="343 233 342 562"><path d="M 355.00 303.00 Q 355.00 245.00 413.00 245.00 L 615.00 245.00 Q 673.00 245.00 673.00 303.00 L 673.00 551.00 Q 673.00 551.00 673.00 551.00 L 445.00 551.00 Q 445.00 551.00 445.00 551.00 L 445.00 783.00 Q 445.00 783.00 445.00 783.00 L 400.00 783.00 Q 355.00 783.00 355.00 738.00 Z M 445.00 345.00 Q 445.00 335.00 455.00 335.00 L 573.00 335.00 Q 583.00 335.00 583.00 345.00 L 583.00 451.00 Q 583.00 461.00 573.00 461.00 L 455.00 461.00 Q 445.00 461.00 445.00 451.00 Z" fill="#2B2E36" fill-rule="evenodd"></path><polyline points="482,401 504,427 548,364" fill="none" stroke="#2B2E36" stroke-width="32" stroke-linejoin="round" stroke-linecap="round"></polyline></svg>